<svg width="84" height="84" viewBox="0 0 84 84" fill="none" xmlns="http://www.w3.org/2000/svg">
<g filter="url(#filter0_d)">
<circle cx="42" cy="42" r="18" fill="#575757"/>
<path fill-rule="evenodd" clip-rule="evenodd" d="M38.9272 37.1977C38.9939 37.2642 39.0468 37.3432 39.0829 37.4302C39.119 37.5171 39.1375 37.6104 39.1375 37.7046C39.1375 37.7987 39.119 37.892 39.0829 37.9789C39.0468 38.0659 38.9939 38.1449 38.9272 38.2114L35.1372 42L38.9272 45.7886C38.9938 45.8552 39.0466 45.9342 39.0826 46.0212C39.1186 46.1081 39.1372 46.2013 39.1372 46.2955C39.1372 46.3896 39.1186 46.4828 39.0826 46.5698C39.0466 46.6567 38.9938 46.7358 38.9272 46.8023C38.8607 46.8689 38.7816 46.9217 38.6947 46.9577C38.6077 46.9937 38.5145 47.0123 38.4204 47.0123C38.3262 47.0123 38.233 46.9937 38.146 46.9577C38.0591 46.9217 37.9801 46.8689 37.9135 46.8023L33.618 42.5069C33.5514 42.4404 33.4985 42.3614 33.4624 42.2744C33.4263 42.1874 33.4077 42.0942 33.4077 42C33.4077 41.9058 33.4263 41.8126 33.4624 41.7256C33.4985 41.6386 33.5514 41.5596 33.618 41.4931L37.9135 37.1977C37.98 37.131 38.059 37.0781 38.146 37.042C38.2329 37.0059 38.3262 36.9874 38.4204 36.9874C38.5145 36.9874 38.6078 37.0059 38.6947 37.042C38.7817 37.0781 38.8607 37.131 38.9272 37.1977Z" fill="white"/>
<path fill-rule="evenodd" clip-rule="evenodd" d="M34.125 42C34.125 41.8101 34.2004 41.628 34.3347 41.4938C34.4689 41.3595 34.651 41.2841 34.8409 41.2841H49.875C50.0649 41.2841 50.247 41.3595 50.3812 41.4938C50.5155 41.628 50.5909 41.8101 50.5909 42C50.5909 42.1899 50.5155 42.372 50.3812 42.5062C50.247 42.6405 50.0649 42.7159 49.875 42.7159H34.8409C34.651 42.7159 34.4689 42.6405 34.3347 42.5062C34.2004 42.372 34.125 42.1899 34.125 42Z" fill="white"/>
</g>
<defs>
<filter id="filter0_d" x="-9" y="-10" width="103" height="103" filterUnits="userSpaceOnUse" color-interpolation-filters="sRGB">
<feFlood flood-opacity="0" result="BackgroundImageFix"/>
<feColorMatrix in="SourceAlpha" type="matrix" values="0 0 0 0 0 0 0 0 0 0 0 0 0 0 0 0 0 0 127 0"/>
<feOffset/>
<feGaussianBlur stdDeviation="12"/>
<feColorMatrix type="matrix" values="0 0 0 0 0 0 0 0 0 0 0 0 0 0 0 0 0 0 0.24 0"/>
<feBlend mode="normal" in2="BackgroundImageFix" result="effect1_dropShadow"/>
<feBlend mode="normal" in="SourceGraphic" in2="effect1_dropShadow" result="shape"/>
</filter>
</defs>
</svg>
